<svg xmlns="http://www.w3.org/2000/svg" width="1200" height="1200" viewBox="0 0 1200 1200"><defs><radialGradient id="bg" cx="50%" cy="50%"><stop offset="0" stop-color="#05000f"/><stop offset=".08" stop-color="#ff2ad4"/><stop offset=".16" stop-color="#00eaff"/><stop offset=".24" stop-color="#ffe600"/><stop offset=".32" stop-color="#ff1744"/><stop offset=".40" stop-color="#00ff7b"/><stop offset=".48" stop-color="#6d20ff"/><stop offset=".56" stop-color="#ff8a00"/><stop offset=".64" stop-color="#00d9ff"/><stop offset=".72" stop-color="#ff00a8"/><stop offset=".80" stop-color="#bfff00"/><stop offset=".88" stop-color="#4b00ff"/><stop offset=".96" stop-color="#ffea00"/><stop offset="1" stop-color="#ff006e"/></radialGradient><pattern id="rings" width="1200" height="1200" patternUnits="userSpaceOnUse"><rect width="1200" height="1200" fill="url(#bg)"/><g fill="none" stroke="#fff" stroke-opacity=".38"><circle cx="600" cy="600" r="35" stroke-width="9"/><circle cx="600" cy="600" r="70" stroke-width="11"/><circle cx="600" cy="600" r="110" stroke-width="13"/><circle cx="600" cy="600" r="155" stroke-width="15"/><circle cx="600" cy="600" r="205" stroke-width="17"/><circle cx="600" cy="600" r="260" stroke-width="19"/><circle cx="600" cy="600" r="320" stroke-width="21"/><circle cx="600" cy="600" r="385" stroke-width="23"/><circle cx="600" cy="600" r="455" stroke-width="25"/><circle cx="600" cy="600" r="530" stroke-width="27"/><circle cx="600" cy="600" r="610" stroke-width="29"/></g><g transform="translate(600 600)" fill="none" stroke-linecap="round"><path d="M0-575 C120-520 145-400 50-330 C-65-245-70-135 10-70 C85-10 90 95 5 160 C-105 245-100 360 20 430 C95 475 115 535 75 585" stroke="#00fff0" stroke-width="28" opacity=".48"/><path d="M575 0 C520 120 400 145 330 50 C245-65 135-70 70 10 C10 85-95 90-160 5 C-245-105-360-100-430 20 C-475 95-535 115-585 75" stroke="#ffef00" stroke-width="28" opacity=".48"/><path d="M0 575 C-120 520-145 400-50 330 C65 245 70 135-10 70 C-85 10-90-95-5-160 C105-245 100-360-20-430 C-95-475-115-535-75-585" stroke="#ff2a8b" stroke-width="28" opacity=".48"/><path d="M-575 0 C-520-120-400-145-330-50 C-245 65-135 70-70-10 C-10-85 95-90 160-5 C245 105 360 100 430-20 C475-95 535-115 585-75" stroke="#7dff00" stroke-width="28" opacity=".48"/></g></pattern></defs><rect width="1200" height="1200" fill="url(#rings)"/></svg>