<svg xmlns="http://www.w3.org/2000/svg" width="2400" height="2400" viewBox="0 0 2400 2400"><defs><radialGradient id="g" cx="50%" cy="50%" r="72%"><stop offset="0" stop-color="#080014"/><stop offset=".055" stop-color="#ff00c8"/><stop offset=".11" stop-color="#00f5ff"/><stop offset=".165" stop-color="#fff000"/><stop offset=".22" stop-color="#ff154f"/><stop offset=".275" stop-color="#00ff85"/><stop offset=".33" stop-color="#7722ff"/><stop offset=".385" stop-color="#ff8b00"/><stop offset=".44" stop-color="#00d9ff"/><stop offset=".495" stop-color="#ff00a8"/><stop offset=".55" stop-color="#c6ff00"/><stop offset=".605" stop-color="#431cff"/><stop offset=".66" stop-color="#ffe900"/><stop offset=".715" stop-color="#ff006e"/><stop offset=".77" stop-color="#00ffc8"/><stop offset=".825" stop-color="#ff4d00"/><stop offset=".88" stop-color="#aa00ff"/><stop offset=".94" stop-color="#00e5ff"/><stop offset="1" stop-color="#ffea00"/></radialGradient><filter id="warp" x="-15%" y="-15%" width="130%" height="130%"><feTurbulence type="fractalNoise" baseFrequency=".006 .009" numOctaves="3" seed="19" result="n"/><feDisplacementMap in="SourceGraphic" in2="n" scale="95" xChannelSelector="R" yChannelSelector="B"/></filter><pattern id="p" width="2400" height="2400" patternUnits="userSpaceOnUse"><rect width="2400" height="2400" fill="url(#g)"/><g transform="translate(1200 1200)" fill="none" filter="url(#warp)"><g stroke="#fff" stroke-opacity=".34"> <circle r="70" stroke-width="13"/><circle r="140" stroke-width="15"/><circle r="220" stroke-width="17"/><circle r="310" stroke-width="19"/><circle r="410" stroke-width="21"/><circle r="520" stroke-width="23"/><circle r="640" stroke-width="25"/><circle r="770" stroke-width="27"/><circle r="910" stroke-width="29"/><circle r="1060" stroke-width="31"/><circle r="1220" stroke-width="33"/><circle r="1390" stroke-width="35"/></g><g stroke-linecap="round" opacity=".66"><path d="M0-1180 C310-1050 350-760 110-610 C-170-430-160-220 35-90 C250 55 220 300-30 450 C-280 600-260 850 70 1010 C190 1070 240 1140 160 1210" stroke="#00fff0" stroke-width="54"/><path d="M1180 0 C1050 310 760 350 610 110 C430-170 220-160 90 35 C-55 250-300 220-450-30 C-600-280-850-260-1010 70 C-1070 190-1140 240-1210 160" stroke="#fff000" stroke-width="54"/><path d="M0 1180 C-310 1050-350 760-110 610 C170 430 160 220-35 90 C-250-55-220-300 30-450 C280-600 260-850-70-1010 C-190-1070-240-1140-160-1210" stroke="#ff1493" stroke-width="54"/><path d="M-1180 0 C-1050-310-760-350-610-110 C-430 170-220 160-90-35 C55-250 300-220 450 30 C600 280 850 260 1010-70 C1070-190 1140-240 1210-160" stroke="#7dff00" stroke-width="54"/></g></g></pattern></defs><rect width="2400" height="2400" fill="url(#p)"/></svg>